<svg width="100%" viewBox="0 0 48 48" role="img" style="" xmlns="http://www.w3.org/2000/svg">
  <title style="fill:rgb(0, 0, 0);stroke:none;color:rgb(255, 255, 255);stroke-width:1px;stroke-linecap:butt;stroke-linejoin:miter;opacity:1;font-family:&quot;Anthropic Sans&quot;, -apple-system, BlinkMacSystemFont, &quot;Segoe UI&quot;, sans-serif;font-size:16px;font-weight:400;text-anchor:start;dominant-baseline:auto">Cambridge Beta Club icon</title>
  <desc style="fill:rgb(0, 0, 0);stroke:none;color:rgb(255, 255, 255);stroke-width:1px;stroke-linecap:butt;stroke-linejoin:miter;opacity:1;font-family:&quot;Anthropic Sans&quot;, -apple-system, BlinkMacSystemFont, &quot;Segoe UI&quot;, sans-serif;font-size:16px;font-weight:400;text-anchor:start;dominant-baseline:auto">Greek beta symbol in baby blue on a navy circle, clean favicon icon for Cambridge Beta Club.</desc>

  <circle cx="24" cy="24" r="24" fill="#1a2f5e" style="fill:rgb(26, 47, 94);stroke:none;color:rgb(255, 255, 255);stroke-width:1px;stroke-linecap:butt;stroke-linejoin:miter;opacity:1;font-family:&quot;Anthropic Sans&quot;, -apple-system, BlinkMacSystemFont, &quot;Segoe UI&quot;, sans-serif;font-size:16px;font-weight:400;text-anchor:start;dominant-baseline:auto"/>

  <path transform="translate(15,4) scale(1.3)" d="M 2.578125 31.976562 L 0 31.976562 C 0.375 30.21875 0.5625 28.625 0.5625 27.199219 L 0.5625 10.199219 C 0.5625 8.429688 0.71875 7.113281 1.03125 6.246094 C 1.355469 5.382812 1.972656 4.625 2.890625 3.96875 C 3.816406 3.300781 4.972656 2.96875 6.355469 2.96875 C 8 2.96875 9.378906 3.40625 10.492188 4.28125 C 11.617188 5.144531 12.179688 6.378906 12.179688 7.980469 C 12.179688 9.855469 11.289062 11.390625 9.507812 12.585938 C 12.164062 13.835938 13.488281 15.796875 13.488281 18.472656 C 13.488281 19.929688 13.136719 21.234375 12.429688 22.390625 C 11.730469 23.535156 10.917969 24.351562 9.992188 24.84375 C 9.078125 25.332031 7.980469 25.574219 6.699219 25.574219 C 5.242188 25.574219 4.054688 25.03125 3.140625 23.9375 L 3.140625 26.839844 C 3.140625 28.839844 2.953125 30.550781 2.578125 31.976562 Z M 3.140625 22.53125 C 3.949219 23.875 5.085938 24.546875 6.542969 24.546875 C 7.949219 24.546875 8.976562 24.035156 9.632812 23.015625 C 10.289062 21.984375 10.617188 20.734375 10.617188 19.269531 C 10.617188 18.144531 10.398438 17 9.960938 15.832031 C 9.535156 14.65625 8.984375 13.761719 8.308594 13.148438 C 7.683594 13.304688 7.121094 13.382812 6.621094 13.382812 C 5.570312 13.382812 5.042969 13.105469 5.042969 12.554688 C 5.042969 12.054688 5.484375 11.804688 6.371094 11.804688 C 6.921875 11.804688 7.609375 11.929688 8.433594 12.179688 C 9.171875 10.929688 9.539062 9.574219 9.539062 8.105469 C 9.539062 6.792969 9.25 5.789062 8.664062 5.09375 C 8.09375 4.394531 7.34375 4.046875 6.417969 4.046875 C 5.679688 4.046875 5.042969 4.253906 4.511719 4.671875 C 3.992188 5.085938 3.632812 5.585938 3.4375 6.167969 C 3.238281 6.742188 3.140625 7.683594 3.140625 8.996094 Z" fill="#a8c8e8" style="fill:rgb(168, 200, 232);stroke:none;color:rgb(255, 255, 255);stroke-width:1px;stroke-linecap:butt;stroke-linejoin:miter;opacity:1;font-family:&quot;Anthropic Sans&quot;, -apple-system, BlinkMacSystemFont, &quot;Segoe UI&quot;, sans-serif;font-size:16px;font-weight:400;text-anchor:start;dominant-baseline:auto"/>

</svg>